<svg width="33" height="33" viewBox="0 0 33 33" fill="none" xmlns="http://www.w3.org/2000/svg">
<path fill-rule="evenodd" clip-rule="evenodd" d="M4.31579 17.0625C2.99228 16.4396 1.9421 15.5391 1.16526 14.3609C0.388422 13.1828 0 11.9031 0 10.5219C0 8.49063 0.74088 6.77084 2.22263 5.3625C3.70438 3.95417 5.52422 3.25 7.68211 3.25C8.02737 3.25 8.37983 3.27709 8.73947 3.33125C9.09912 3.38542 9.45158 3.45313 9.79684 3.53438C10.5161 2.42396 11.4512 1.55729 12.6021 0.934378C13.753 0.311461 15.0189 3.03984e-06 16.4 3.03984e-06C17.7811 3.03984e-06 19.047 0.311461 20.1979 0.934378C21.3488 1.55729 22.2839 2.42396 23.0032 3.53438C23.3484 3.45313 23.6937 3.38542 24.0389 3.33125C24.3842 3.27709 24.7439 3.25 25.1179 3.25C27.2758 3.25 29.0956 3.95417 30.5774 5.3625C32.0591 6.77084 32.8 8.49063 32.8 10.5219C32.8 11.9031 32.4116 13.1828 31.6347 14.3609C30.8579 15.5391 29.8077 16.4396 28.4842 17.0625L26.9305 21.5V27L28.4842 32.5C19.3327 29.4759 14.0606 29.4906 4.31579 32.5L5.86947 27L5.69684 21.5L4.31579 17.0625ZM7.76842 15.0719V22.75H25.0316V15.0719L26.9305 14.1781C27.6786 13.826 28.2684 13.3318 28.7 12.6953C29.1316 12.0589 29.3474 11.3479 29.3474 10.5625C29.3474 9.425 28.9374 8.46354 28.1174 7.67813C27.2974 6.89271 26.2975 6.5 25.1179 6.5C24.8014 6.5 24.5137 6.52709 24.2547 6.58125C23.9958 6.63542 23.7225 6.70313 23.4347 6.78438L21.4063 7.3125L20.0684 5.2C19.6656 4.57709 19.1405 4.09636 18.4932 3.75782C17.8458 3.41927 17.1481 3.25 16.4 3.25C15.6519 3.25 14.9542 3.41927 14.3068 3.75782C13.6595 4.09636 13.1344 4.57709 12.7316 5.2L11.3937 7.3125L9.32211 6.78438C9.03439 6.73021 8.75386 6.66927 8.48053 6.60156C8.20719 6.53386 7.92667 6.5 7.63895 6.5C6.4593 6.5 5.46666 6.89271 4.66105 7.67813C3.85544 8.46354 3.45263 9.425 3.45263 10.5625C3.45263 11.3479 3.66842 12.0589 4.1 12.6953C4.53158 13.3318 5.12141 13.826 5.86947 14.1781L7.76842 15.0719ZM25.0316 29.25V26C18.5818 24.6979 14.8316 24.5794 7.76842 26L7.76842 29.25C14.8813 27.4128 18.6791 27.3716 25.0316 29.25Z" fill="#F4E8D3"/>
<path fill-rule="evenodd" clip-rule="evenodd" d="M7.76842 22.75H25.0316V15.0719L26.9305 14.1781C27.6786 13.826 28.2684 13.3318 28.7 12.6953C29.1316 12.0589 29.3474 11.3479 29.3474 10.5625C29.3474 9.425 28.9374 8.46354 28.1174 7.67813C27.2974 6.89271 26.2975 6.5 25.1179 6.5C24.8014 6.5 24.5137 6.52709 24.2547 6.58125C23.9958 6.63542 23.7225 6.70313 23.4347 6.78438L21.4063 7.3125L20.0684 5.2C19.6656 4.57709 19.1405 4.09636 18.4932 3.75782C17.8458 3.41927 17.1481 3.25 16.4 3.25C15.6519 3.25 14.9542 3.41927 14.3068 3.75782C13.6595 4.09636 13.1344 4.57709 12.7316 5.2L11.3937 7.3125L9.32211 6.78438C9.03439 6.73021 8.75386 6.66927 8.48053 6.60156C8.20719 6.53386 7.92667 6.5 7.63895 6.5C6.4593 6.5 5.46666 6.89271 4.66105 7.67813C3.85544 8.46354 3.45263 9.425 3.45263 10.5625C3.45263 11.3479 3.66842 12.0589 4.1 12.6953C4.53158 13.3318 5.12141 13.826 5.86947 14.1781L7.76842 15.0719V22.75ZM14.6737 19.5H11.2211C9.67929 16.327 9.39862 14.548 11.2211 11.375C12.4825 11.3419 13.2475 11.3435 14.6737 11.375C12.5439 14.5068 12.7025 16.2889 14.6737 19.5ZM21.5789 19.5H18.1263C20.4398 16.327 20.8438 14.548 18.1263 11.375H21.5789C23.6362 14.548 23.1758 16.327 21.5789 19.5Z" fill="#F4E8D3"/>
</svg>
