<svg width="17" height="20" viewBox="0 0 17 20" fill="none" xmlns="http://www.w3.org/2000/svg">
<path fill-rule="evenodd" clip-rule="evenodd" d="M0.444445 3.10204C0.502929 3.1128 0.557271 3.12387 0.608936 3.1344C0.902708 3.19427 1.10993 3.23651 1.5 3.10204C1.50043 3.1088 1.49822 3.37328 1.49443 3.82048C1.48059 5.45276 1.44611 9.51939 1.44539 12.3741C1.44502 13.8309 1.44464 15.372 1.44444 16.991C1.44444 17.5715 1.64027 18.0685 2.03194 18.4819C2.42361 18.8954 2.89444 19.1021 3.44444 19.1021H13.4444C13.9944 19.1021 14.4653 18.8954 14.8569 18.4819C15.2486 18.0685 15.4444 17.5715 15.4444 16.991L15.4444 3.10204M15.4444 3.10204H1.5L1.50001 3C10.114 2.51042 11.18 2.65521 12.378 2.81792C13.015 2.90444 13.6894 2.99602 15.5556 3C15.8747 3.00068 16.1555 3.00164 16.4015 3.00284C16.2919 2.72641 16.0384 1.91423 16.4444 1.10204C16.9444 0.102041 11.4444 1.10204 11.4444 1.10204C11.4444 1.10204 11.9445 -0.397959 11.4444 0.102041C11.0763 0.470159 8.54004 0.296233 6.82861 0.178872C6.21548 0.136827 5.70821 0.102041 5.44444 0.102041C4.44443 0.102041 5.44444 1.10204 5.44444 1.10204C5.44444 1.10204 1.44444 2.60204 0.444445 1.10204C-0.555556 -0.397959 0.444445 3.10204 0.444445 3.10204M10.4479 15.6021H9.38737V6.10203H10.4479V10.731V15.6021ZM3.09436 15.6021H4.15485V10.731V6.10203H3.09436V15.6021ZM7.313 15.6021H6.25252V6.10203H7.313V10.731V15.6021ZM12.5339 15.6021H13.5944V10.731V6.10203H12.5339V15.6021Z" fill="#AC5043"/>
</svg>
